<svg xmlns="http://www.w3.org/2000/svg" width="1348.88" height="435.646" viewBox="0 0 1348.88 435.646">
  <g id="Group_9131" data-name="Group 9131" transform="translate(-3264 -1264.524)">
    <g id="Group_9130" data-name="Group 9130" transform="translate(25 44.524)">
      <path id="Path_7960" data-name="Path 7960" d="M19.6,177l244.674-13.546c8.156-.445,16.458,6.841,14.843,14.843-17.538,86.917-14.435,172.718,4.636,257.666,1.787,7.957-6.678,14.834-14.843,14.834H12.176c-8.156,0-13.936-9.59-11.686-17.438,19.5-67.928,24.6-144.275,6.5-241.888C5.5,183.445,11.45,177.457,19.6,177Z" transform="translate(3239 1204.845)" fill="#268acb" fill-rule="evenodd"/>
      <path id="Path_7961" data-name="Path 7961" d="M86.045,217.65A10.756,10.756,0,1,1,75.285,228.4,10.753,10.753,0,0,1,86.045,217.65Zm110.869,47.568a10.352,10.352,0,0,1,20.7-.163v.454h0v.372h.036a71.6,71.6,0,0,1-143.2,0H74.5v-.363a10.347,10.347,0,0,1,20.695,0v.363h.036a50.826,50.826,0,1,0,101.651,0h.045v-.29Zm9.154-47.568a10.756,10.756,0,1,1-10.76,10.751A10.745,10.745,0,0,1,206.068,217.65Z" transform="translate(3232.096 1199.818)" fill="#fff" fill-rule="evenodd"/>
      <path id="Path_7962" data-name="Path 7962" d="M131.332,145.436,120.2,51.941l5.19-5.38a9.06,9.06,0,0,0,.744,1.3c3.711-1.842,13.3-7.258,19.969-11.06a12.065,12.065,0,0,0,17.964-.426L187.284,41.4l6.378,4.046s9.109,77.817,11.486,99.02L131.9,148.521Zm8.7-126.374-7.966-13.5s3.439-1.479,5.38-.644,4.273,2.041,5.48,1.479,5.562-5.1,7.412-5.752A9.564,9.564,0,0,1,152.753,0s5.752,1.76,7.14,3.157,2.141,2.032,3.529,1.479,5.38-3.8,6.959-3.983a13.739,13.739,0,0,1,2.595-.1l-4.3,16.485c-1.851,1.043-3.647,2.06-5.253,2.985a12.042,12.042,0,0,0-17.383.345l-6.006-1.306Z" transform="translate(3227.854 1220)" fill="#8fc43f" fill-rule="evenodd"/>
      <path id="Path_7963" data-name="Path 7963" d="M122.4,16.115c-1.071,2.341-.454,26.5,3.892,32.644,3.711-1.842,13.3-7.258,19.969-11.06a12.065,12.065,0,0,0,17.964-.426l23.48,5.09c1.062-2.341.445-26.511-3.9-32.653-3.747,1.869-13.555,7.4-20.223,11.214a12.042,12.042,0,0,0-17.383.345l-23.8-5.153Z" transform="translate(3227.692 1219.1)" fill="#1eac4b" fill-rule="evenodd"/>
      <path id="Path_7964" data-name="Path 7964" d="M184.235,79.333l32.626,7.322,1.107.245h0l-1.107-.245-14.689,65.523-41.762,2.3L176.1,84.5a6.841,6.841,0,0,1,8.138-5.162Zm74.1,16.612,30.122,6.759a6.822,6.822,0,0,1,5.153,8.129l-8.229,36.736-41.762,2.314,12.04-53.738c.916-.036,1.805-.109,2.676-.2Z" transform="translate(3224.126 1212.659)" fill="#df3286" fill-rule="evenodd"/>
      <path id="Path_7965" data-name="Path 7965" d="M221.015,84.5l1.107.245c-5.553-4.137-19.833-13.573-16.376-21.448,4.3-9.789,15.242-8.882,21.584-2.831s9.862,16.413,10.243,22.637c0,0,4.083-1.27,7.14.236s3.611,1.778,3.611,1.778,15.306-19.552,25.649-15.669,13.228,12.03,10.27,15.578c-2.749,3.312-11.767,8.347-24.433,8.964l-12.04,53.738-41.444,2.3L221.015,84.5Zm8.619-4.01s-3.4-13.237-8.057-15.523-7.521-1.379-8.855,1.334S220.325,75.218,229.634,80.489ZM274.753,77.5s3.339,2.676,2.069,4.727-12.774,4.409-15.233,4.491-5.4-.064-5.4-.064,7.086-6.523,10.915-8.692,6.251-1.488,7.648-.463Z" transform="translate(3219.971 1214.815)" fill="#ef9720" fill-rule="evenodd"/>
      <path id="Path_7966" data-name="Path 7966" d="M12.372,119.687l38.949-9.408,1.316-.318h0l-1.316.318,12,49.737-48.957,2.713-8.011-33.2a8.178,8.178,0,0,1,6.015-9.844ZM100.84,98.33,136.8,89.656a8.185,8.185,0,0,1,9.853,6.015l14.226,58.946-48.966,2.713L98.064,99.963c.962-.526,1.878-1.071,2.776-1.633Z" transform="translate(3238.431 1211.708)" fill="#ef9720" fill-rule="evenodd"/>
      <path id="Path_7967" data-name="Path 7967" d="M53.114,107.877l1.316-.318c-8.147-1.506-28.5-4.092-28.951-14.389-.553-12.8,11.686-17.628,21.7-14.471s19.3,12.43,23.008,18.917c0,0,3.711-3.52,7.793-3.52H82.8s6.124-29.124,19.3-30.421,20.586,5.934,19.289,11.314c-1.216,5.017-8.238,15.206-21.53,22.573L113.7,154.928l-48.585,2.686-12-49.737Zm7.149-8.864s-10.67-12.43-16.884-12.43-8.81,2.5-8.81,6.124S47.461,98.269,60.263,99.013ZM107.2,71.931s5.008,1.107,4.727,3.983-11.4,11.5-14.008,12.892-5.843,2.785-5.843,2.785,4.173-10.76,7.149-15.115,5.934-4.917,7.975-4.545Z" transform="translate(3236.639 1214.11)" fill="#e41f29" fill-rule="evenodd"/>
    </g>
    <path id="Path_7968" data-name="Path 7968" d="M471.01,161.65a97.325,97.325,0,1,1-97.32,97.33V108.08c12.77-13.91,28.01-22.48,45.69-23.3V250.39c0,40.52,15.83,74.72,47.07,74.72,36.53,0,58.02-29.61,58.02-66.13a66.181,66.181,0,0,0-85.06-63.39s8.32-21.62,24.17-33.66c2.45-.18,4.93-.28,7.43-.28ZM1148.82,58.92a37.429,37.429,0,0,1,25.42,9.91l-9.47,9.47a24.2,24.2,0,1,0,0,36.37l9.47,9.47a37.563,37.563,0,1,1-25.42-65.22Zm123.23,8.98c4.32-4.71,9.38-7.83,15.16-8.73V71.48c2.92-3.52,11.32-12.26,22.59-12.26,12.86,0,20.55,6.2,23.35,13.64.65-.9,10.07-13.64,23.68-13.64,19.56,0,26.05,12.89,26.05,30.04v33.36c-4.92,5.36-10.79,8.66-17.6,8.98V88.56s-.68-14.52-12.75-14.52c-18.36,0-15.76,14.47-16.68,17.9v30.68c-4.91,5.36-10.78,8.66-17.59,8.98V88.56s-.69-14.52-12.75-14.52-15.86,8.28-15.86,15.64v32.94c-4.92,5.36-10.79,8.66-17.6,8.98V67.9Zm-48.8-8.98a37.565,37.565,0,1,1-37.57,37.57,37.567,37.567,0,0,1,37.57-37.57Zm0,13.37a24.2,24.2,0,1,1-24.2,24.2A24.192,24.192,0,0,1,1223.25,72.29ZM845.58,161.65a97.325,97.325,0,1,1-97.32,97.33V108.08c12.77-13.91,28.01-22.48,45.69-23.3V250.39c0,40.52,15.83,74.72,47.07,74.72,36.53,0,58.02-29.61,58.02-66.13a66.181,66.181,0,0,0-85.06-63.39s8.32-21.62,24.17-33.66c2.45-.18,4.93-.28,7.43-.28Zm203.64,22.9c12.77-13.91,28.01-22.48,45.69-23.31V332.99c-12.77,13.91-28.01,22.48-45.69,23.31Zm22.85-98.34a22.9,22.9,0,1,1-22.9,22.9A22.9,22.9,0,0,1,1072.07,86.21ZM973.16,52.06c12.78-13.91,28.01-22.48,45.69-23.31V332.99c-12.77,13.91-28.01,22.48-45.69,23.31V52.06ZM674.65,184.55c12.77-13.91,28.01-22.48,45.69-23.31V332.99c-12.77,13.91-28.01,22.48-45.69,23.31ZM697.5,86.21a22.9,22.9,0,1,1-22.9,22.9A22.9,22.9,0,0,1,697.5,86.21ZM598.59,52.06c12.77-13.91,28.01-22.48,45.69-23.31V332.99c-12.77,13.91-28.01,22.48-45.69,23.31V52.06Z" transform="translate(3230 1343.87)" fill="#268acb" fill-rule="evenodd"/>
  </g>
</svg>
