<svg xmlns="http://www.w3.org/2000/svg" width="92.876" height="30.43" viewBox="0 0 92.876 30.43">
  <g id="Group_9132" data-name="Group 9132" transform="translate(-3376.656 -1831)">
    <rect id="Rectangle_819" data-name="Rectangle 819" width="73.777" height="30.43" transform="translate(3376.706 1831)" fill="#fff" opacity="0"/>
    <g id="Group_9131" data-name="Group 9131" transform="translate(3403.248 1837.517)">
      <path id="Path_7960" data-name="Path 7960" d="M9.9,425.322a.7.7,0,1,1,.774-1.16q.29.2.638.406a8.624,8.624,0,0,0,4.293,1.45,2.956,2.956,0,0,0,2.572-1.257h0c.039-.058.077-.1.077-.135a3.771,3.771,0,0,0,.367-.812,2.455,2.455,0,0,0-.1-1.663,3.383,3.383,0,0,0-1.45-1.528h0a7.831,7.831,0,0,0-1.837-.773,7.447,7.447,0,0,1-4-2.262,3.5,3.5,0,0,1,0-4.022,3.883,3.883,0,0,1,3.268-1.837,8.564,8.564,0,0,1,4.447,1.025.692.692,0,1,1-.619,1.238,7.13,7.13,0,0,0-3.713-.87,2.514,2.514,0,0,0-2.146,1.122,2.211,2.211,0,0,0-.1,2.533,6.122,6.122,0,0,0,3.249,1.76,8.3,8.3,0,0,1,2.166.928h0a4.8,4.8,0,0,1,1.992,2.166,3.745,3.745,0,0,1,.155,2.591,4.763,4.763,0,0,1-.522,1.16,1.245,1.245,0,0,0-.116.193h0a4.28,4.28,0,0,1-3.732,1.856,9.954,9.954,0,0,1-5.008-1.644A7.443,7.443,0,0,0,9.9,425.322Z" transform="translate(-9.594 -411.712)" fill="#ea501f"/>
      <path id="Path_7961" data-name="Path 7961" d="M75.1,412.459a.7.7,0,0,1,1.392,0v14.367a.7.7,0,0,1-1.392,0Z" transform="translate(-62.433 -411.784)" fill="#ea501f"/>
      <path id="Path_7962" data-name="Path 7962" d="M77.318,446.765a.7.7,0,1,1-1.083-.89,7.169,7.169,0,0,1,3.442-2.436,4.432,4.432,0,0,1,2.4-.077,3.363,3.363,0,0,1,1.876,1.3,3.966,3.966,0,0,1,.7,2.359v5.144a.7.7,0,0,1-1.392,0v-5.144a2.686,2.686,0,0,0-.425-1.566,2.033,2.033,0,0,0-1.1-.754,3,3,0,0,0-1.644.058A5.986,5.986,0,0,0,77.318,446.765Z" transform="translate(-63.22 -437.138)" fill="#ea501f"/>
      <path id="Path_7963" data-name="Path 7963" d="M135.615,443.2a4.792,4.792,0,0,1,3.4,1.412h0a4.813,4.813,0,1,1-6.807,6.807h0a4.808,4.808,0,0,1,0-6.807h0a4.827,4.827,0,0,1,3.4-1.412Zm2.436,2.378a3.454,3.454,0,0,0-4.873,0h0a3.455,3.455,0,0,0,0,4.873h0a3.446,3.446,0,0,0,4.873-4.873Z" transform="translate(-107.363 -437.111)" fill="#ea501f"/>
      <path id="Path_7964" data-name="Path 7964" d="M190.8,443.9a.7.7,0,0,1,1.392,0v.87a1.172,1.172,0,0,1,.155-.155h0a4.808,4.808,0,0,1,6.807,0h0a4.813,4.813,0,1,1-6.807,6.806h0a1.174,1.174,0,0,0-.155-.155v6.323a.7.7,0,0,1-1.392,0Zm7.367,1.682a3.454,3.454,0,0,0-4.873,0h0a3.454,3.454,0,0,0,0,4.873h0a3.446,3.446,0,0,0,4.873-4.873Z" transform="translate(-155.761 -437.111)" fill="#ea501f"/>
      <path id="Path_7965" data-name="Path 7965" d="M256.506,443.2a4.235,4.235,0,0,1,3.055,1.276,4.691,4.691,0,0,1,1.16,2.011c.6,1.953-.541,1.876-.889,1.876h-6.4a6.167,6.167,0,0,0,.309,1.276,2.945,2.945,0,0,0,1.083,1.354,3.341,3.341,0,0,0,1.818.464,7.075,7.075,0,0,0,2.688-.638.693.693,0,1,1,.541,1.276,8.871,8.871,0,0,1-3.21.735,4.488,4.488,0,0,1-2.572-.677,3.79,3.79,0,0,1-1.624-1.992,5.228,5.228,0,0,1,.986-5.685A4.129,4.129,0,0,1,256.506,443.2Zm2.088,2.262a2.941,2.941,0,0,0-4.177,0,3.568,3.568,0,0,0-.909,1.489h6.014A4.053,4.053,0,0,0,258.594,445.46Z" transform="translate(-205.165 -437.109)" fill="#ea501f"/>
      <path id="Path_7966" data-name="Path 7966" d="M311.106,443.2a4.235,4.235,0,0,1,3.055,1.276,4.691,4.691,0,0,1,1.16,2.011c.6,1.953-.541,1.876-.889,1.876h-6.4a6.172,6.172,0,0,0,.309,1.276,2.945,2.945,0,0,0,1.083,1.354,3.341,3.341,0,0,0,1.818.464,7.075,7.075,0,0,0,2.688-.638.693.693,0,1,1,.541,1.276,8.872,8.872,0,0,1-3.21.735,4.488,4.488,0,0,1-2.572-.677,3.79,3.79,0,0,1-1.624-1.992,5.228,5.228,0,0,1,.986-5.685,4.129,4.129,0,0,1,3.055-1.276Zm2.088,2.262a2.941,2.941,0,0,0-4.177,0,3.567,3.567,0,0,0-.909,1.489h6.014a4.053,4.053,0,0,0-.928-1.489Z" transform="translate(-249.208 -437.109)" fill="#ea501f"/>
    </g>
    <g id="Group_9130" data-name="Group 9130" transform="translate(3376.656 1831.041)">
      <path id="Path_7967" data-name="Path 7967" d="M21.254,20.518h4.579A9.928,9.928,0,0,1,27.025,16.5a3.977,3.977,0,0,1,3.308-2.3,4,4,0,0,1,3.308,2.3,9.884,9.884,0,0,1,1.191,4.019h4.574a.962.962,0,0,1,.985.985l-.919,12.812a2.474,2.474,0,0,1-2.59,2.523h-13.1a2.5,2.5,0,0,1-2.59-2.523l-.924-12.805A.971.971,0,0,1,21.254,20.518Zm5.722,0h6.7a8.657,8.657,0,0,0-1.033-3.448,2.9,2.9,0,0,0-2.311-1.727,2.921,2.921,0,0,0-2.323,1.733A8.723,8.723,0,0,0,26.976,20.518Z" transform="translate(-20.267 -14.2)" fill="#ea501f"/>
      <path id="Path_7968" data-name="Path 7968" d="M127.964,171.719a.464.464,0,1,1,.523-.766c.134.091.274.182.426.274a5.762,5.762,0,0,0,2.876.973,1.975,1.975,0,0,0,1.727-.845h0c.024-.043.049-.067.055-.085a2.287,2.287,0,0,0,.243-.547,1.644,1.644,0,0,0-.061-1.119,2.349,2.349,0,0,0-.973-1.028h0a4.725,4.725,0,0,0-1.228-.511,4.927,4.927,0,0,1-2.675-1.52,2.343,2.343,0,0,1-.006-2.7,2.622,2.622,0,0,1,2.2-1.234,5.734,5.734,0,0,1,2.979.681.465.465,0,1,1-.426.827,4.777,4.777,0,0,0-2.487-.584,1.714,1.714,0,0,0-1.441.748,1.493,1.493,0,0,0-.067,1.7,4.1,4.1,0,0,0,2.183,1.174,6.021,6.021,0,0,1,1.459.614h0a3.236,3.236,0,0,1,1.344,1.453,2.576,2.576,0,0,1,.11,1.745,3.029,3.029,0,0,1-.347.778c-.036.055-.061.1-.079.128h0a2.884,2.884,0,0,1-2.493,1.253,6.647,6.647,0,0,1-3.362-1.107A5.415,5.415,0,0,1,127.964,171.719Z" transform="translate(-121.225 -153.575)" fill="#fff"/>
    </g>
  </g>
</svg>
