<?xml version="1.0" encoding="UTF-8"?>
<!DOCTYPE svg PUBLIC "-//W3C//DTD SVG 1.1//EN" "http://www.w3.org/Graphics/SVG/1.1/DTD/svg11.dtd">
<!-- Creator: CorelDRAW 2019 (64-Bit) -->
<svg xmlns="http://www.w3.org/2000/svg" xml:space="preserve" width="2200px" height="480px" version="1.1" style="shape-rendering:geometricPrecision; text-rendering:geometricPrecision; image-rendering:optimizeQuality; fill-rule:evenodd; clip-rule:evenodd"
viewBox="0 0 2200 479.99"
 xmlns:xlink="http://www.w3.org/1999/xlink"
 xmlns:xodm="http://www.corel.com/coreldraw/odm/2003">
 <defs>
  <style type="text/css">
   <![CDATA[
    .fil0 {fill:#0064D3}
    .fil1 {fill:#FEDD00}
   ]]>
  </style>
 </defs>
 <g id="Layer_x0020_1">
  <metadata id="CorelCorpID_0Corel-Layer"/>
  <path class="fil0" d="M143.72 316.25c-4.69,-4.33 -10.96,-6.99 -17.82,-6.99l-9.1 0c-6.47,0 -16.21,-8.82 -16.21,-16.16l0 -39.35 0 -24.82 0 -48.76 21.47 0c14.43,0 26.24,-11.81 26.24,-26.24l0 0c0,-14.43 -11.81,-26.24 -26.24,-26.24l-21.47 0 0 -35.71c0,-16.32 -13.35,-29.66 -29.67,-29.66 -16.31,0 -29.66,13.34 -29.66,29.66l0 35.71 -15.02 0c-14.43,0 -26.24,11.81 -26.24,26.24l0 0c0,14.43 11.81,26.24 26.24,26.24l15.02 0c0,43.78 0,84.63 0,128.41 -0.41,9.25 3.74,18.7 3.74,18.7 6.59,16.98 21.48,29.82 39.69,33.52 3.51,0.71 7.14,1.09 10.85,1.09l30.36 0c14.47,0 26.31,-11.85 26.31,-26.32 0,-5.24 -1.55,-10.13 -4.21,-14.24 -1.21,-1.87 -2.65,-3.57 -4.28,-5.08zm511.95 -60.41l-114.2 0c23.9,80.38 91.64,52.8 118.56,40.84 9.81,-4.35 31.84,6.62 29.2,24.92 -2.64,18.29 -26.29,26.29 -26.29,26.29 0,0 -30.02,12.35 -66.54,10.93 -66.51,-2.59 -113.92,-54.03 -115.93,-121.49 2.02,-67.46 53.2,-121.49 116.05,-121.49 97.79,0 152.95,140 86.69,140l-27.54 0zm0 -40.84c-4.95,-29.09 -28.92,-52.69 -57.1,-52.69 -28.17,0 -52.3,22.75 -57.1,52.69l114.2 0zm189.26 101.25c-4.69,-4.33 -10.96,-6.99 -17.82,-6.99l-9.1 0c-6.48,0 -16.22,-8.82 -16.22,-16.16l0 -39.35 0 -24.82 0 -48.76 21.48 0c14.43,0 26.24,-11.81 26.24,-26.24l0 0c0,-14.43 -11.81,-26.24 -26.24,-26.24l-21.48 0 0 -35.71c0,-16.32 -13.34,-29.66 -29.66,-29.66 -16.31,0 -29.66,13.34 -29.66,29.66l0 35.71 -15.03 0c-14.42,0 -26.23,11.81 -26.23,26.24l0 0c0,14.43 11.81,26.24 26.23,26.24l15.03 0c0,43.78 0,84.63 0,128.41 -0.41,9.25 3.74,18.7 3.74,18.7 6.59,16.98 21.48,29.82 39.69,33.52 3.51,0.71 7.13,1.09 10.85,1.09l30.36 0c14.47,0 26.31,-11.85 26.31,-26.32 0,-5.24 -1.55,-10.13 -4.21,-14.24 -1.21,-1.87 -2.65,-3.57 -4.28,-5.08zm-565.91 -166.6l0 178.49c0,16.31 13.35,29.66 29.66,29.66 16.32,0 29.66,-13.35 29.66,-29.66l0 -19.73 0 -10.11 26.52 -30.42 4.01 5.51 52.31 72.06c9.29,12.78 27.34,15.65 40.12,6.36 12.78,-9.28 15.65,-27.33 6.37,-40.11l-60.08 -82.74 53.75 -61.66c9.61,-11.02 8.45,-27.9 -2.57,-37.51 -11.02,-9.6 -27.9,-8.44 -37.5,2.58l-45.72 52.45 -37.21 42.69 0 -93.93 0 -68.46c0,-16.31 -13.34,-29.66 -29.66,-29.66 -16.29,0 -29.62,13.32 -29.66,29.6 0,0.02 0,0.04 0,0.06l0 84.53zm-72.41 -32.09l0 0c16.31,0 29.66,13.35 29.66,29.66l0 176.13c0,16.31 -13.35,29.66 -29.66,29.66l0 0c-16.32,0 -29.66,-13.35 -29.66,-29.66l0 -176.13c0,-16.31 13.34,-29.66 29.66,-29.66z"/>
  <path class="fil0" d="M1463.84 236.53c0,-46.35 34.55,-83.92 77.18,-83.92 12.42,0 24.15,3.19 34.55,8.86 6.31,3.44 12.12,7.79 17.3,12.9 0.16,0.05 0.33,0.11 0.49,0.16 1.98,0.71 4.12,1.09 6.34,1.09 10.47,0 18.95,-8.48 18.95,-18.95 0,-3.45 -0.93,-6.69 -2.54,-9.47 -0.11,-0.19 -0.2,-0.39 -0.29,-0.6 -4.82,-4.56 -10.02,-8.7 -15.53,-12.37 -18.1,-12.05 -39.61,-19.03 -62.69,-19.03 -64.35,0 -116.52,54.32 -116.52,121.33 0,67.01 52.17,121.33 116.52,121.33 21.07,0 40.84,-5.83 57.89,-16.01 7.56,-4.52 14.58,-9.88 20.95,-15.98 0.05,-0.1 0.09,-0.19 0.14,-0.28 1.32,-2.58 2.07,-5.51 2.07,-8.62 0,-10.46 -8.48,-18.94 -18.95,-18.94 -2.84,0 -5.54,0.62 -7.96,1.75 -2.4,2.27 -4.92,4.38 -7.55,6.32 -0.01,0.01 -0.02,0.02 -0.03,0.03 -0.19,0.28 -0.49,0.47 -0.86,0.61 -4.28,3.05 -8.86,5.66 -13.67,7.75 -8.85,3.84 -18.5,5.95 -28.61,5.95 -42.63,0 -77.18,-37.57 -77.18,-83.91zm463.13 -82.19l0 -14.62c0,-11.19 -9.16,-20.35 -20.35,-20.35 -11.19,0 -20.35,9.16 -20.35,20.35l0 193.54c0,11.19 9.16,20.35 20.35,20.35 11.19,0 20.35,-9.16 20.35,-20.35l0 -149.38c27.14,-30.58 76.12,-53.74 93.7,0l0 149.38c0,11.19 9.16,20.35 20.35,20.35 11.19,0 20.35,-9.16 20.35,-20.35l0 -149.38c39.73,-39.89 76.37,-44.33 97.92,0l0 149.38c0,11.19 9.16,20.35 20.36,20.35 11.19,0 20.35,-9.16 20.35,-20.35l0 -163.07c-5.59,-23.31 -17.59,-38.53 -32.65,-46.66 -32.28,-17.42 -78.61,-2.23 -105.98,35.91 -1.87,-5.76 -4.29,-10.92 -7.17,-15.48 -25.32,-40.07 -86.37,-34.32 -127.23,10.38zm-177.34 -39.14c64.35,0 116.52,54.32 116.52,121.33 0,67.01 -52.17,121.33 -116.52,121.33 -64.35,0 -116.52,-54.32 -116.52,-121.33 0,-67.01 52.17,-121.33 116.52,-121.33zm-0.54 37.41c40.18,0 72.74,37.57 72.74,83.92 0,46.34 -32.56,83.91 -72.74,83.91 -40.18,0 -72.74,-37.57 -72.74,-83.91 0,-46.35 32.56,-83.92 72.74,-83.92z"/>
  <path class="fil1" d="M1137.31 0c132.55,0 240,107.45 240,239.99 0,132.55 -107.45,240 -240,240 -132.54,0 -239.99,-107.45 -239.99,-240 0,-132.54 107.45,-239.99 239.99,-239.99z"/>
 </g>
</svg>
