<svg xmlns="http://www.w3.org/2000/svg" xmlns:xlink="http://www.w3.org/1999/xlink" width="1470.666" height="310.006" viewBox="0 0 1470.666 310.006"><defs><radialGradient id="a" cx="0.5" cy="0.496" r="2.356" gradientTransform="translate(0.268 0.251) scale(0.207 0.187)" gradientUnits="objectBoundingBox"><stop offset="0.12" stop-color="#515252" stop-opacity="0.702"/><stop offset="0.97" stop-color="#515252" stop-opacity="0"/></radialGradient><linearGradient id="b" x1="0.595" y1="0.206" x2="0.081" y2="1.239" gradientUnits="objectBoundingBox"><stop offset="0" stop-color="#519b4c" stop-opacity="0"/><stop offset="1" stop-color="#519b4c"/></linearGradient><linearGradient id="c" x1="0.499" y1="0.532" x2="0.502" y2="1.344" xlink:href="#b"/><linearGradient id="d" x1="0.481" y1="0.428" x2="0.703" y2="1.411" xlink:href="#b"/><linearGradient id="e" x1="1.067" y1="0.009" x2="-0.216" y2="1.121" gradientUnits="objectBoundingBox"><stop offset="0" stop-color="#3f843f"/><stop offset="1" stop-color="#519b4c"/></linearGradient><linearGradient id="f" x1="0.5" y1="0.989" x2="0.5" y2="0.05" gradientUnits="objectBoundingBox"><stop offset="0" stop-color="#e5e3e3"/><stop offset="1" stop-color="#e5e3e3" stop-opacity="0"/></linearGradient><linearGradient id="g" x1="0.49" y1="0.597" x2="0.456" y2="1.312" xlink:href="#b"/><linearGradient id="h" x1="0.505" y1="0.13" x2="0.483" y2="1.351" xlink:href="#e"/><linearGradient id="i" x1="0" y1="0.5" x2="1" y2="0.5" xlink:href="#e"/><linearGradient id="k" x1="0.499" y1="-0.514" x2="0.499" y2="0.294" gradientUnits="objectBoundingBox"><stop offset="0" stop-color="#f9ec31"/><stop offset="0.21" stop-color="#f9de2e"/><stop offset="0.61" stop-color="#f7bb27"/><stop offset="1" stop-color="#f6921e"/></linearGradient><linearGradient id="l" x1="1.098" y1="1.125" x2="0.448" y2="0.428" xlink:href="#k"/><linearGradient id="n" x1="0.5" y1="1.409" x2="0.5" y2="-1.351" gradientUnits="objectBoundingBox"><stop offset="0.2" stop-color="#fff" stop-opacity="0"/><stop offset="0.97" stop-color="#fff"/></linearGradient><linearGradient id="o" x1="1.178" y1="1.48" x2="1.178" y2="-1.28" xlink:href="#n"/><linearGradient id="p" x1="0.506" y1="0.13" x2="0.49" y2="1.35" xlink:href="#k"/><linearGradient id="q" x1="1.779" y1="0.267" x2="0.386" y2="0.639" gradientUnits="objectBoundingBox"><stop offset="0" stop-color="#f9ec31" stop-opacity="0"/><stop offset="0.09" stop-color="#f9e730" stop-opacity="0.059"/><stop offset="0.27" stop-color="#f8da2d" stop-opacity="0.2"/><stop offset="0.51" stop-color="#f8c529" stop-opacity="0.439"/><stop offset="0.8" stop-color="#f7a823" stop-opacity="0.761"/><stop offset="1" stop-color="#f6921e"/></linearGradient><linearGradient id="r" x1="1.073" y1="1.2" x2="-0.068" y2="-0.303" xlink:href="#n"/></defs><g transform="translate(-4294 -11913)"><g transform="translate(4294 11913.006)"><ellipse cx="158.29" cy="32.74" rx="158.29" ry="32.74" transform="translate(0 244.52)" fill="url(#a)"/><path d="M230.2,59.07A66.26,66.26,0,0,0,98.48,58.9l-.72,7.66,20.55,1.25.39-7.59c3.09-23.89,20.92-39.91,45.72-40s43.07,16.21,45.76,40.37l1.28,10.22,20-1.43Z" fill="#414242" fill-rule="evenodd"/><path d="M44.06,56A8.13,8.13,0,0,0,36,64.11l.22,118.5v26.85l.14,73.21a8.12,8.12,0,0,0,8.14,8.11l73.2-.14h12.78l81.14-.15A81.59,81.59,0,0,0,292.88,209v-5.66l-.25-133A14.82,14.82,0,0,0,277.86,55.5c-14.91,0-30.17-.08-45,.78l-18.45,1.63c-16.46,2-33.1,5.75-46.39,12.47a8.17,8.17,0,0,1-7.47,0c-13.93-7.25-29.08-11-46.35-12.9L95.79,56.1C78.48,55.33,60.8,55.8,44.06,56Z" fill="#60bb55" fill-rule="evenodd"/><path d="M52.22,55.87A16.43,16.43,0,0,0,36,72.32l.21,110.29v26.85l.14,73.08a8.25,8.25,0,0,0,8.27,8.24l73.07-.14h12.78l81.14-.15A81.59,81.59,0,0,0,292.88,209v-5.66l-.25-132.89a15,15,0,0,0-14.9-14.95c-14.87,0-30.08-.08-44.83.78l-18.45,1.63c-16.44,2-33,5.74-46.33,12.44a8.31,8.31,0,0,1-7.58,0c-13.92-7.23-29-11-46.3-12.87L95.79,56.1C81.27,55.45,66.49,55.68,52.22,55.87Z" fill-rule="evenodd" fill="url(#b)"/><path d="M59.45,290.76l58.32-.12h12.78l81.14-.15a81,81,0,0,0,52.14-19.17A107.9,107.9,0,0,0,59.45,290.76" fill="#84c468" fill-rule="evenodd"/><path d="M59.45,290.76l58.32-.12h12.78l81.14-.15a81,81,0,0,0,52.14-19.17A107.9,107.9,0,0,0,59.45,290.76" fill-rule="evenodd" fill="url(#c)"/><path d="M164.74,290.56l47.89-.8A80.26,80.26,0,0,0,292.88,209v-5.66L292.6,62.2a6.68,6.68,0,0,0-6.66-6.67c-17.44,0-35.56-.27-53,.75l-18.45,1.63c-18,2.23-36.3,6.48-50.13,14.49Z" fill="#4f9d4d" fill-rule="evenodd"/><path d="M164.74,290.56l47.89-.8A80.26,80.26,0,0,0,292.88,209v-5.66L292.6,62.2a6.68,6.68,0,0,0-6.66-6.67c-17.44,0-35.56-.27-53,.75l-18.45,1.63c-18,2.23-36.3,6.48-50.13,14.49Z" fill-rule="evenodd" fill="url(#d)"/><path d="M222.65,94.64a58.44,58.44,0,1,1-58.33,58.55,58.44,58.44,0,0,1,58.33-58.55" fill-rule="evenodd" opacity="0.7" fill="url(#e)"/><path d="M222.67,102.31A50.77,50.77,0,1,1,172,153.17a50.77,50.77,0,0,1,50.67-50.86" fill="#fff" fill-rule="evenodd"/><path d="M271.79,139.14a51.08,51.08,0,0,1-98.12.23,51.07,51.07,0,1,0,98.12-.23Z" fill-rule="evenodd" fill="url(#f)"/><path d="M216.94,120.19a33.58,33.58,0,1,1-27.17,19.48,16.19,16.19,0,1,0,25.49-19.27c.55-.09,1.12-.15,1.68-.21" fill="#303030" fill-rule="evenodd"/><path d="M164.74,290.56l47.24-.1a80.05,80.05,0,0,0,51.85-19.16c-16.41-37.93-55.45-64.55-99.25-65.06Z" fill="#60bb55" fill-rule="evenodd"/><path d="M164.74,290.56l47.24-.1a80.05,80.05,0,0,0,51.85-19.16c-16.41-37.93-55.45-64.55-99.25-65.06Z" fill-rule="evenodd" fill="url(#g)"/><path d="M195.45,203.46c-5.38-20-25.19-21.81-30.56-22.12a5.55,5.55,0,0,0-1.23,0c-5.17.51-25.08,2.57-29.92,23a27,27,0,0,0,0,3.25v.07s1.7,1.12,4.31,2.78C141.49,220,158,238,164.73,238h.61c5.59,0,20.64-16.26,25.06-26.8,2.69-1.74,4.58-3,5-3.4A16,16,0,0,0,195.45,203.46Z" opacity="0.5" fill="url(#h)"/><path d="M105.77,94.64a58.44,58.44,0,1,1-58.33,58.55,58.44,58.44,0,0,1,58.33-58.55" fill-rule="evenodd" opacity="0.7" fill="url(#i)"/><path d="M105.78,102.31a50.77,50.77,0,1,1-50.66,50.86,50.77,50.77,0,0,1,50.66-50.86" fill="#fff" fill-rule="evenodd"/><path d="M154.91,139.14a51.08,51.08,0,0,1-98.12.23,51.07,51.07,0,1,0,98.12-.23Z" fill-rule="evenodd" fill="url(#f)"/><path d="M111.31,120a33.58,33.58,0,1,1-29,16.67,16.19,16.19,0,1,0,27.28-16.63h1.69" fill="#303030" fill-rule="evenodd"/><path d="M165.34,233.34c6.76,0,27.43-22.83,26.25-31.12-4.75-17.95-22-20.2-26.78-20.48a4.891,4.891,0,0,0-1.08,0c-4.56.45-22,3.36-26.26,21.65-1.39,6.9,19.48,29.93,27.26,29.94Z" fill-rule="evenodd" fill="url(#k)"/><path d="M187.37,213.13c2.82-4.29,4.59-8.31,4.22-10.91a25.61,25.61,0,0,0-10.18-14.92,40.86,40.86,0,0,0-16.52-4.53,5.551,5.551,0,0,0-1.23,0A41.12,41.12,0,0,0,147.31,188a26.09,26.09,0,0,0-9.84,15.44c-.39,2,1,5.23,3.41,8.9,7.76,4.61,19.61,11.22,23.73,11.22S179.74,217.66,187.37,213.13Z" fill="url(#l)"/><path d="M187.37,213.13c2.82-4.29,4.59-8.31,4.22-10.91a25.61,25.61,0,0,0-10.18-14.92,40.86,40.86,0,0,0-16.52-4.53,5.551,5.551,0,0,0-1.23,0A41.12,41.12,0,0,0,147.31,188a26.09,26.09,0,0,0-9.84,15.44c-.39,2,1,5.23,3.41,8.9,7.76,4.61,19.61,11.22,23.73,11.22S179.74,217.66,187.37,213.13Z" opacity="0.5" fill="url(#l)"/><path d="M158.84,75.18c-13.94-8-29.13-12-46.67-13.92L95,60c-16.13-.72-32.6-.28-48.19-.12a7.6,7.6,0,0,0-7.53,7.62C93.31,57.89,158.84,75.18,158.84,75.18Z" fill-rule="evenodd" opacity="0.8" fill="url(#n)"/><path d="M168.74,75.18c13.94-8,29.13-12,46.67-13.92L232.6,60c16.13-.72,32.6-.28,48.19-.12a7.6,7.6,0,0,1,7.53,7.62C234.27,57.89,168.74,75.18,168.74,75.18Z" fill-rule="evenodd" opacity="0.8" fill="url(#o)"/><path d="M195.25,201c-5.38-19.15-25-21.53-30.36-21.82a5.551,5.551,0,0,0-1.23,0c-5.17.49-25,3.62-29.81,23.15a9.64,9.64,0,0,0-.14,2v.07s24.55,15.57,30.87,15.57c6.59,0,29.33-14.21,30.75-15.47a10.27,10.27,0,0,0-.08-3.5Z" fill="url(#p)"/><path d="M133.85,202.32a9.64,9.64,0,0,0-.14,2v.07s23.86,15.14,30.58,15.55c1.86-37.62-.66-40.72-.66-40.72C158.49,179.66,138.69,182.79,133.85,202.32Z" fill-rule="evenodd" opacity="0.9" fill="url(#q)"/><path d="M171,180a40.889,40.889,0,0,0-6.14-.82,5.551,5.551,0,0,0-1.23,0s2.52,3.1.66,40.72C167.48,211.44,169.92,190.82,171,180Z" fill-rule="evenodd" fill="url(#r)"/><path d="M162.89,179.25h0Z" fill="#fff" fill-rule="evenodd"/></g><g transform="translate(4691 11992.021)"><path d="M607.689,55.009h25.3V177.7h-1.729a23.575,23.575,0,0,1-23.575-23.575ZM394.229,179.826a66.534,66.534,0,0,1-47.517-7.858A62.657,62.657,0,0,1,316.4,134.4c-10.242-33.529,10.766-70.883,44.531-79.946a62.212,62.212,0,0,1,48.041,6.077c25.33,14.171,34.551,36.07,32.953,64.282l-102.159-.21A35.075,35.075,0,0,0,358.447,150.8c10.164,5.684,19.515,7.046,28.186,4.348,9.64-3.012,17.446-10.871,23.811-18.336l20.9,15.114C422.86,167.2,411.229,176.185,394.229,179.826Zm19.332-78.139a30.464,30.464,0,0,0-16.45-19.908c-21.951-12.259-43.535-1.834-53.594,19.829Zm346.634,7.177a28.815,28.815,0,0,0-11.369-23.89,40.366,40.366,0,0,0-25.749-8.12c-22.92,0-37.642,17.917-37.642,40,0,21.27,15.586,39.03,37.406,39.03,15.14,0,23.261-8.88,31.905-19.908V167.8a70.539,70.539,0,0,1-14.643,9.011,50.556,50.556,0,0,1-19.489,3.379c-36.463,0-60.536-30.176-60.536-64.937,0-17.917,5.58-32.717,16.791-44.269,11.892-12.233,27.452-18.336,46.548-18.336,36.2,0,62.081,20.772,62.081,58.309V177.7h-1.781a23.575,23.575,0,0,1-23.575-23.575ZM631.526,40.5a14.25,14.25,0,0,1-11.107,4.348,14.512,14.512,0,0,1-14.9-15.036,14.145,14.145,0,0,1,14.9-14.8,14.512,14.512,0,0,1,14.9,14.8,15.533,15.533,0,0,1-3.8,10.687ZM560.041,161.49c-11.63,12.495-26.588,18.7-44.74,18.7-19.122,0-34.734-6.6-46.6-19.856q-16.738-18.808-16.712-46.967c0-33.136,25.592-60.824,59.226-60.824a70.935,70.935,0,0,1,35.651,8.985V89.062c-9.142-6.182-20.589-12.076-31.905-12.076-23.575,0-37.642,16.241-37.642,39.292s14.852,39.763,38.113,39.763a33.11,33.11,0,0,0,26.195-11.919c6.915-7.858,10.478-19.515,10.478-35.1V23.575A23.575,23.575,0,0,1,575.679,0h1.755V112.873C577.382,132.754,571.645,149.021,560.041,161.49Zm-274.206.917a56.659,56.659,0,0,1-41.78,17.786,67.215,67.215,0,0,1-35.546-9.273V143.782c9.116,6.182,20.589,12.1,31.905,12.1,23.575,0,37.642-16.241,37.642-39.292s-14.538-39.763-38.139-39.763a32.691,32.691,0,0,0-25.776,11.395C206.99,96.449,203.3,108.21,203.3,123.77V230.984h-1.781a23.575,23.575,0,0,1-23.575-23.575V119.788c0-37.223,22.763-67.242,61.846-67.242,19.279,0,34.97,6.6,46.862,19.856q16.738,18.572,16.712,46.967a59.043,59.043,0,0,1-17.524,43.038Z" transform="translate(288.168)" fill="#42b549"/><path d="M165.838,87.831a35.284,35.284,0,0,0-26.745-10.976c-23.287,0-37.249,17-37.249,39.5s14.3,39.528,37.249,39.528,37.275-17.315,37.275-39.528A39.292,39.292,0,0,0,165.838,87.831Zm249.111,0A35.284,35.284,0,0,0,388.2,76.855c-23.287,0-37.249,17-37.249,39.5s14.276,39.528,37.249,39.528,37.249-17.315,37.249-39.528a39.5,39.5,0,0,0-10.5-28.526ZM433.286,162.2a65.015,65.015,0,0,1-89.8,0,60.876,60.876,0,0,1-18.808-45.841A63.889,63.889,0,0,1,433.1,70.726a60.772,60.772,0,0,1,18.939,45.683A60.876,60.876,0,0,1,433.233,162.2ZM302.5,84.556a155.142,155.142,0,0,1-8.618,13.385,35.127,35.127,0,0,1-6.6,6.837c17.577,5.684,24.151,17.865,24.151,36.044V177.7h-1.781a23.575,23.575,0,0,1-23.575-23.575v-10.74c0-11.761-5.239-19.751-17.734-19.751H245.365V177.7H243.61a23.575,23.575,0,0,1-23.575-23.575V23.575A23.575,23.575,0,0,1,243.61,0h1.781V99.068h7.465c8.225,0,13.647-2.8,16.738-8.12L290.76,55.009h28.814ZM184.122,162.2a62.867,62.867,0,0,1-45.029,18,62.422,62.422,0,0,1-44.793-18,60.824,60.824,0,0,1-18.834-45.841,62.631,62.631,0,0,1,63.627-63.81,62.71,62.71,0,0,1,44.9,18.179,60.771,60.771,0,0,1,18.939,45.683A60.876,60.876,0,0,1,184.122,162.2ZM37.065,177.7C12.285,177.7,0,160.835,0,137.312V48.067A23.575,23.575,0,0,1,23.575,24.492h1.781V55.009h42.75V79.37H25.33v60.772c0,10.321,4.61,13.1,14.486,13.1h28.29v24.335Z" fill="#42b549"/></g></g></svg>