<svg width="90" height="20" viewBox="0 0 90 20" fill="none" xmlns="http://www.w3.org/2000/svg">
<path d="M2.66444 19.2096C1.88399 18.6656 1.25744 17.6931 1.25744 15.9674V11.3959H0.336979H0V11.059V9.97878V9.64193H0.336979H1.27652V7.26878V6.93184H1.6135H2.88983H3.22681V7.26878V9.64193H5.30943H5.64641V9.97878V11.059V11.3959H5.30943H3.22681V15.8347C3.22681 16.6358 3.42387 17.1461 3.70057 17.4671C4.09848 17.929 4.68326 18.0183 5.06182 18.0183C5.12701 18.0183 5.19229 18.0183 5.24415 18.0149H5.24545C5.30351 18.0111 5.36361 18.0037 5.4276 17.9896L5.8369 17.8991V18.3173V19.4734V19.7582L5.55391 19.8051C5.48038 19.8173 5.38287 19.8292 5.2673 19.8371C5.16933 19.8438 5.06108 19.8481 4.94745 19.8481C4.34887 19.8481 3.43785 19.7487 2.66444 19.2096ZM8.73868 19.7724H7.44327H7.10638V19.4354V9.90304V9.5661H7.44327H8.71969H9.05667V9.90304V10.9479C9.24586 10.6881 9.46023 10.4529 9.69757 10.2504C10.2642 9.76739 10.9579 9.47137 11.749 9.47137C11.8453 9.47137 11.9509 9.47721 12.0572 9.48897C12.1563 9.49989 12.2544 9.51647 12.3437 9.53869L12.6004 9.60258V9.86508V11.1348V11.6007L12.158 11.4546C12.1539 11.4533 12.11 11.4492 12.0451 11.4441C11.9676 11.4379 11.8742 11.4338 11.787 11.4338C10.9553 11.4338 10.3363 11.8511 9.90435 12.4607L9.9037 12.4603C9.33253 13.267 9.07566 14.4046 9.07566 15.3989V19.4354V19.7724H8.73868ZM13.9839 19.1164C13.3728 18.5907 12.9742 17.8417 12.9742 16.8771C12.9742 15.1313 14.0749 14.2112 15.427 13.729C16.7057 13.2729 18.2029 13.2236 19.141 13.2236H19.375C19.3638 12.4977 19.1801 12.002 18.8763 11.6852C18.5225 11.3162 17.9829 11.1685 17.3501 11.1685C16.9054 11.1685 16.4621 11.2451 16.0413 11.3855C15.6042 11.5316 15.1904 11.7451 14.8232 12.0124L14.5262 12.2287L14.3375 11.9137L13.747 10.9282L13.6002 10.6833L13.818 10.4992C14.2333 10.148 14.8048 9.85545 15.4421 9.65248C16.0676 9.45322 16.7583 9.3386 17.4263 9.3386C18.6763 9.3386 19.6549 9.69285 20.3276 10.38C20.9946 11.061 21.345 12.0524 21.345 13.3331V19.4354V19.7724H21.008H19.7696H19.4326V19.4354V18.6955C19.2092 18.9468 18.9504 19.1739 18.6612 19.3652C18.0694 19.7565 17.3514 19.9998 16.5499 19.9998C15.6097 19.9998 14.6649 19.7021 13.9839 19.1164ZM16.4304 15.2002C15.6169 15.4401 14.9627 15.895 14.9627 16.7633C14.9627 17.1478 15.1315 17.5417 15.4666 17.8249C15.7667 18.0786 16.2035 18.2457 16.7785 18.2457C17.5245 18.2457 18.1302 17.8879 18.5664 17.3585C19.0906 16.7218 19.3755 15.8421 19.3755 15.0198V14.9209H19.16C18.4356 14.9209 17.3314 14.9344 16.4304 15.2002ZM27.8667 19.7724H26.4568H26.2272L26.1435 19.5566L22.4475 10.0242L22.27 9.5661H22.7608H24.1516H24.3834L24.4661 9.78452L27.1143 16.7775L27.1157 16.7815C27.1279 16.8154 27.14 16.8502 27.1521 16.8857C27.1642 16.8503 27.1765 16.8154 27.1887 16.7815L27.19 16.7775L29.8382 9.78452L29.9209 9.5661H30.1527H31.5245H32.0144L31.8391 10.0228L28.1812 19.5552L28.098 19.7724H27.8667ZM33.8113 18.4864C32.8634 17.547 32.2927 16.2276 32.2927 14.6788C32.2927 13.0763 32.8312 11.7779 33.7007 10.8607C34.6336 9.87693 35.9422 9.3386 37.3734 9.3386C38.7332 9.3386 39.7819 9.83776 40.511 10.639C41.3081 11.515 41.7112 12.7464 41.7112 14.0722C41.7112 14.1774 41.706 14.2947 41.698 14.4155C41.692 14.5075 41.6814 14.6274 41.6705 14.7469L41.6425 15.0536H41.3362H34.3383C34.4257 15.9615 34.7696 16.6819 35.2771 17.1971C35.8923 17.8217 36.7554 18.1509 37.6973 18.1509C38.1757 18.1509 38.6632 18.052 39.1209 17.8735C39.5882 17.6912 40.0238 17.4268 40.387 17.1007L40.6906 16.8282L40.9004 17.1784L41.4911 18.1639L41.6326 18.4L41.4292 18.585C40.9525 19.0189 40.346 19.3718 39.6925 19.6165C39.0349 19.8627 38.3288 19.9998 37.6592 19.9998C36.1266 19.9998 34.7759 19.4424 33.8113 18.4864ZM35.3674 11.7979C34.9471 12.1749 34.6245 12.6976 34.4524 13.3563H39.697C39.6152 12.672 39.3748 12.1461 39.0316 11.7737C38.5994 11.3048 37.9943 11.0738 37.3353 11.0738C36.5902 11.0738 35.8979 11.3222 35.3674 11.7979ZM44.4314 19.4013C43.8963 19.0222 43.4759 18.3532 43.4759 17.1803V6.11276V5.77582H43.8128H45.1084H45.4454V6.11276V16.896C45.4454 17.4167 45.5506 17.6992 45.7 17.8443C45.8293 17.97 46.018 17.9993 46.1943 17.9993C46.2387 17.9993 46.2943 17.9992 46.318 17.9982C46.3581 17.9965 46.4018 17.9929 46.4452 17.9856L46.8361 17.9208V18.3173V19.4734V19.7584L46.5531 19.8051C46.4926 19.8151 46.4194 19.8254 46.3271 19.8337C46.2309 19.8424 46.1284 19.8481 46.0229 19.8481C45.5848 19.8481 44.9612 19.7765 44.4314 19.4013ZM49.0688 18.4407C48.1067 17.4801 47.5149 16.1442 47.5149 14.6218C47.5149 13.1259 48.1075 11.813 49.0708 10.8693C50.0464 9.9135 51.4001 9.3386 52.9005 9.3386C54.402 9.3386 55.7613 9.91406 56.7413 10.8705C57.7084 11.8146 58.3054 13.1269 58.3054 14.6218C58.3054 16.1432 57.7098 17.4779 56.7445 18.4381C55.764 19.4136 54.4035 19.9998 52.9005 19.9998C51.3985 19.9998 50.0441 19.4145 49.0688 18.4407ZM50.4965 12.1667C49.8937 12.7817 49.5224 13.6408 49.5224 14.6218C49.5224 15.6373 49.8918 16.5136 50.4918 17.1379C51.1024 17.7733 51.9544 18.1509 52.9005 18.1509C53.8484 18.1509 54.7063 17.7723 55.3214 17.1354C55.9247 16.5107 56.2976 15.6354 56.2976 14.6218C56.2976 13.6427 55.9227 12.7845 55.3166 12.1693C54.7014 11.5448 53.8456 11.1685 52.9005 11.1685C51.9572 11.1685 51.1071 11.5438 50.4965 12.1667ZM61.6833 19.7724H60.3878H60.0508V19.4354V6.11276V5.77582H60.3878H61.6833H62.0203V6.11276V13.2047H63.0632L65.8195 9.69508L65.9209 9.5661H66.0842H67.6465H68.3482L67.9084 10.1136L64.7169 14.0865L68.2657 19.2446L68.6288 19.7724H67.9893H66.4272H66.2485L66.1482 19.6223L63.0669 15.0156H62.0203V19.4354V19.7724H61.6833ZM69.5575 19.1164C68.9464 18.5907 68.5479 17.8417 68.5479 16.8771C68.5479 15.1313 69.6485 14.2112 71.0006 13.729C72.2794 13.2729 73.7766 13.2236 74.7146 13.2236H74.9486C74.9374 12.4976 74.7538 12.002 74.4501 11.6852C74.0961 11.3162 73.5565 11.1685 72.9238 11.1685C72.4791 11.1685 72.0357 11.2451 71.6151 11.3855C71.1779 11.5316 70.764 11.7451 70.3969 12.0124L70.0999 12.2287L69.9112 11.9137L69.3206 10.9282L69.1738 10.6834L69.3916 10.4992C69.8069 10.148 70.3784 9.85545 71.0156 9.65248C71.6413 9.45322 72.3319 9.3386 73 9.3386C74.2499 9.3386 75.2285 9.69285 75.9013 10.38C76.5682 11.061 76.9187 12.0524 76.9187 13.3331V19.4354V19.7724H76.5817H75.3433H75.0063V19.4354V18.6954C74.7829 18.9468 74.5241 19.1739 74.2349 19.3652C73.6431 19.7565 72.9251 19.9998 72.1236 19.9998C71.1833 19.9998 70.2385 19.7021 69.5575 19.1164ZM72.0041 15.2002C71.1907 15.4401 70.5364 15.895 70.5364 16.7633C70.5364 17.1478 70.7051 17.5418 71.0403 17.825C71.3404 18.0786 71.7772 18.2457 72.3523 18.2457C73.0982 18.2457 73.704 17.888 74.14 17.3584C74.6643 16.7218 74.9492 15.842 74.9492 15.0198V14.9209H74.7337C74.0093 14.9209 72.9051 14.9344 72.0041 15.2002Z" fill="black"/>
<path fill-rule="evenodd" clip-rule="evenodd" d="M84.3785 10.5623C84.3898 10.5553 84.401 10.549 84.4124 10.5418C83.8986 9.00646 86.0354 6.41192 89.9997 2.07275C86.7948 2.46599 84.3159 3.27942 82.5625 4.51303C82.7333 7.02766 83.3385 9.04423 84.3785 10.5623Z" fill="#189CC2"/>
<path fill-rule="evenodd" clip-rule="evenodd" d="M84.3785 10.5623C84.3898 10.5553 84.401 10.5489 84.4124 10.5418C84.395 10.49 84.381 10.4367 84.3696 10.3824C83.8692 8.48097 83.6665 6.28421 83.7614 3.79218C83.3299 4.01393 82.9302 4.25421 82.5625 4.51282C82.7332 7.02755 83.3384 9.04412 84.3785 10.5623Z" fill="#0A7FA7"/>
<path fill-rule="evenodd" clip-rule="evenodd" d="M85.6978 12.7633C86.5445 13.1965 87.2458 13.4203 87.8673 13.313C83.6908 11.6761 81.9572 7.23849 82.6664 0.000244141C81.1661 0.295152 79.9483 0.981355 79.1001 2.12497C78.3614 3.12108 78.5984 4.38756 79.2042 6.07719C79.2854 6.30404 79.3832 7.52534 78.8772 7.97904C78.6913 8.14571 78.3927 8.01386 78.1343 7.84534C77.2463 7.34099 76.5083 7.34589 75.9202 7.86015C74.2995 7.58812 73.1255 7.4396 72.3984 7.41441C73.4357 7.74117 74.634 8.07673 75.9796 8.46932C76.5543 8.637 77.0473 9.03108 77.4358 9.62821C78.2309 10.8502 80.4839 11.5129 82.6663 11.8273C83.4853 11.9452 84.6176 12.2106 85.6978 12.7633Z" fill="#1BA0E1"/>
</svg>
